# xmcd
#
# Track frame offsets: 
#        150
#        18648
#        34858
#        56728
#        76599
#        94769
#        116962
#        135360
#        152840
#        169709
#
# Disc length: 2523 seconds
#
# Revision: 0
# Processed by: cddbd v1.5.2PL0 Copyright (c) Steve Scherf et al.
# Submitted via: ExactAudioCopyFreeDBPlugin 1.0
#
DISCID=7909d90a
DTITLE=Tom Pintens - de oogst
DYEAR=2011
DGENRE=Blues
TTITLE0=Flatscreen
TTITLE1=De Oogst
TTITLE2=Filmen
TTITLE3=Niets kon blijven duren
TTITLE4=Hij denkt
TTITLE5=Nieuwe dag
TTITLE6=Oude God
TTITLE7=Al wie kan minnen
TTITLE8=In de duinen
TTITLE9=Altamira
EXTD=
EXTT0=
EXTT1=
EXTT2=
EXTT3=
EXTT4=
EXTT5=
EXTT6=
EXTT7=
EXTT8=
EXTT9=
PLAYORDER=
